<svg xmlns="http://www.w3.org/2000/svg" fill="none" viewBox="0 0 176 40" height="40" width="176">
<g clip-path="url(#clip0_141_306)">
<path fill="white" d="M3.39837 1.10917H0V0.554688H10.2647V1.10917H6.86635V24.3812H11.1159C17.6437 24.3812 19.6814 23.5173 19.6814 16.9699H20.2257V24.9357H0V24.3812H3.39837V1.10917Z"></path>
<path fill="white" d="M32.0536 24.9355C38.1035 24.9355 38.9199 17.2824 38.9199 12.7466C38.9199 8.21083 38.1035 0.554481 32.0536 0.554481C26.0036 0.554481 25.1872 8.20761 25.1872 12.7466C25.1872 17.2856 26.0036 24.9355 32.0536 24.9355ZM32.0536 0C37.7998 0 42.7961 5.64474 42.7961 12.7434C42.7961 19.842 37.7998 25.4868 32.0536 25.4868C26.3073 25.4868 21.3142 19.842 21.3142 12.7434C21.3142 5.64474 26.3073 0 32.0536 0Z"></path>
<path fill="white" d="M46.533 1.10917H43.1346V0.554688H53.3994V1.10917H50.001V24.3812H54.2505C60.7783 24.3812 62.8192 23.5173 62.8192 16.9699H63.3635V24.9357H43.1378V24.3812H46.5362V1.10917H46.533Z"></path>
<path fill="white" d="M67.8439 1.10917H64.4456V0.554688H74.7103V1.10917H71.3119V24.3812H75.5614C82.0892 24.3812 84.1301 23.5173 84.1301 16.9699H84.6744V24.9357H64.4487V24.3812H67.8471V1.10917H67.8439Z"></path>
<path fill="white" d="M88.8512 1.10917H85.7534V0.554688H95.4106V1.10917H92.316V24.3812H95.4106V24.9357H85.7534V24.3812H88.8512V1.10917Z"></path>
<path fill="white" d="M104.349 12.7791C104.859 13.124 105.843 13.5076 106.966 13.5076C109.21 13.5076 112.507 12.2955 112.507 7.6211C112.507 2.94669 110.469 1.10917 106.422 1.10917H104.346V12.7791H104.349ZM100.882 1.10917H97.5179V0.554688H107.204C112.27 0.554688 116.177 2.32129 116.177 7.30839C116.177 12.2955 111.656 14.0621 107.542 14.0621C106.387 14.0621 105.027 13.8203 104.346 13.4722V24.3812H107.814V24.9357H97.5148V24.3812H100.878V1.10917H100.882Z"></path>
<path fill="white" d="M128.619 24.9355C134.669 24.9355 135.485 17.2824 135.485 12.7466C135.485 8.21083 134.669 0.554481 128.619 0.554481C122.569 0.554481 121.753 8.20761 121.753 12.7466C121.753 17.2856 122.569 24.9355 128.619 24.9355ZM128.619 0C134.365 0 139.361 5.64474 139.361 12.7434C139.361 19.842 134.365 25.4868 128.619 25.4868C122.873 25.4868 117.88 19.842 117.88 12.7434C117.88 5.64474 122.873 0 128.619 0Z"></path>
<path fill="white" d="M146.937 12.7791C147.449 13.124 148.43 13.5076 149.557 13.5076C151.8 13.5076 155.097 12.2955 155.097 7.6211C155.097 2.94669 153.056 1.10917 149.012 1.10917H146.937V12.7791ZM143.472 1.10917H140.108V0.554688H149.794C154.86 0.554688 158.768 2.32129 158.768 7.30839C158.768 12.2955 154.246 14.0621 150.133 14.0621C148.978 14.0621 147.617 13.8203 146.937 13.4722V24.3812H150.405V24.9357H140.105V24.3812H143.469V1.10917H143.472Z"></path>
<path fill="white" d="M160.771 16.3798H161.315C161.315 22.1986 164.678 24.9355 168.757 24.9355C172.019 24.9355 174.367 22.8208 174.367 19.7066C174.367 16.1057 172.532 15.0322 168.621 14.4068C163.283 13.5397 160.771 12.6402 160.771 6.82141C160.771 2.87234 163.321 0 167.128 0C170.63 0 171.953 2.11154 173.111 2.11154C173.893 2.11154 173.994 1.24436 174.095 0.79626H174.639V8.06899H174.095C173.788 4.11992 171.681 0.554481 167.128 0.554481C164.239 0.554481 162.198 2.49516 162.198 5.68021C162.198 8.86525 163.353 9.49065 168.994 10.5287C173.959 11.4281 175.997 13.0561 175.997 17.5564C175.997 22.0567 173.551 25.4868 168.621 25.4868C165.223 25.4868 163.419 23.6847 162.16 23.6847C161.347 23.6847 161.312 24.5519 161.312 25.1386H160.767V16.3765L160.771 16.3798Z"></path>
<path fill="white" d="M65.2809 36.0382C65.4423 36.1478 65.746 36.2671 66.0973 36.2671C66.7966 36.2671 67.8249 35.8899 67.8249 34.4328C67.8249 32.9756 67.1921 32.405 65.9296 32.405H65.2841V36.0414L65.2809 36.0382ZM64.2019 32.4018H63.1545V32.231H66.1732C67.7521 32.231 68.9735 32.7822 68.9735 34.3361C68.9735 35.8899 67.5623 36.4411 66.2839 36.4411C65.9232 36.4411 65.4992 36.367 65.2872 36.2574V39.6584H66.3694V39.8325H63.1577V39.6584H64.2051V32.405L64.2019 32.4018Z"></path>
<path fill="white" d="M76.9474 33.9235H76.9253L75.8842 37.1956H78.0359L76.9443 33.9235H76.9474ZM78.0929 37.3664H75.8241L75.3906 38.7268C75.3178 38.9428 75.2324 39.2007 75.2324 39.3845C75.2324 39.536 75.359 39.6553 75.6976 39.6553H76.2481V39.8293H74.0648V39.6553H74.4034C74.7325 39.6553 74.8685 39.623 75.071 39.017L77.3493 32.0537H77.4664L80.042 39.6553H80.9217V39.8293H77.8176V39.6553H78.8554L78.0929 37.3664Z"></path>
<path fill="white" d="M88.7309 35.8351H89.2594C90.5124 35.8351 91.2433 35.3934 91.2433 34.1394C91.2433 33.2754 90.9554 32.4018 89.4524 32.4018H88.7309V35.8351ZM87.6488 32.4018H86.5919V32.231H89.8447C91.063 32.231 92.3888 32.5114 92.3888 34.1394C92.3888 35.4579 90.8953 35.8028 90.12 35.8996V35.9189C91.3382 36.0285 91.9837 36.2961 92.1451 37.721L92.2938 39.0395C92.3698 39.6778 92.6641 39.7197 92.8444 39.7197C93.0248 39.7197 93.1703 39.6552 93.2779 39.6133L93.3412 39.7551C93.1292 39.8293 92.8634 39.8938 92.471 39.8938C91.1769 39.8938 91.1041 39.191 90.9554 37.9498L90.8826 37.3019C90.8067 36.6217 90.6168 36.0059 89.4207 36.0059H88.7309V39.6552H89.8131V39.8293H86.5919V39.6552H87.6488V32.4018Z"></path>
<path fill="white" d="M99.9195 32.4016H98.9545V32.2275H101.964V32.4016H101.002V39.655H101.964V39.8291H98.9545V39.655H99.9195V32.4016Z"></path>
<path fill="white" d="M108.099 37.1599H108.27C108.27 38.9749 109.317 39.8259 110.589 39.8259C111.608 39.8259 112.336 39.1683 112.336 38.1947C112.336 37.0729 111.763 36.7376 110.545 36.5442C108.884 36.2734 108.096 35.9929 108.096 34.178C108.096 32.9465 108.89 32.0503 110.077 32.0503C111.168 32.0503 111.583 32.7079 111.944 32.7079C112.187 32.7079 112.219 32.4371 112.251 32.2953H112.418V34.5648H112.251C112.156 33.3333 111.497 32.2212 110.077 32.2212C109.175 32.2212 108.542 32.824 108.542 33.8169C108.542 34.8098 108.9 35.0064 110.662 35.3288C112.209 35.6093 112.845 36.1154 112.845 37.521C112.845 38.9265 112.083 39.9936 110.545 39.9936C109.488 39.9936 108.925 39.4326 108.533 39.4326C108.279 39.4326 108.27 39.7034 108.27 39.8872H108.099V37.1567V37.1599Z"></path>
</g>
<defs>
<clipPath id="clip0_141_306">
<rect fill="white" height="40" width="176"></rect>
</clipPath>
</defs>
</svg>
